<svg width="62" height="62" viewBox="0 0 62 62" fill="none" xmlns="http://www.w3.org/2000/svg">
<g filter="url(#filter0_dd_2457_6060)">
<path d="M3 14C3 7.37258 8.37258 2 15 2H47C53.6274 2 59 7.37258 59 14V46C59 52.6274 53.6274 58 47 58H15C8.37258 58 3 52.6274 3 46V14Z" fill="url(#paint0_linear_2457_6060)"/>
<path d="M35.251 30.6373L31.1406 32.5016L31.1416 32.5026C30.7835 32.6658 30.3945 32.7506 30.001 32.7506C29.6072 32.7506 29.2176 32.666 28.8594 32.5026L24.751 30.6285V32.9996C24.751 33.3673 25.0615 33.9347 26.0938 34.4508C27.0909 34.9493 28.4962 35.2496 30.001 35.2496C31.5058 35.2496 32.9111 34.9494 33.9082 34.4508C34.9405 33.9347 35.251 33.3673 35.251 32.9996V30.6373ZM39.251 32.9996V28.8219L36.751 29.9567V32.9996C36.751 34.2232 35.7972 35.1835 34.5791 35.7926C33.3259 36.4192 31.6786 36.7496 30.001 36.7496C28.3234 36.7496 26.6761 36.4191 25.4229 35.7926C24.2047 35.1835 23.251 34.2232 23.251 32.9996V29.944L20.2998 28.5983C19.9884 28.4618 19.7232 28.2383 19.5371 27.9537C19.351 27.669 19.252 27.3359 19.252 26.9957C19.252 26.6558 19.3511 26.3233 19.5371 26.0387C19.7213 25.757 19.9827 25.5339 20.29 25.3971L28.8594 21.4977C29.2176 21.3343 29.6072 21.2496 30.001 21.2496C30.3946 21.2497 30.7835 21.3344 31.1416 21.4977L39.7129 25.401H39.7119C40.0186 25.5337 40.2808 25.7516 40.4678 26.0289C40.6592 26.3128 40.763 26.6465 40.7666 26.9889C40.7675 27.0728 40.762 27.1564 40.751 27.2389V32.9996C40.751 33.4138 40.4151 33.7495 40.001 33.7496C39.5868 33.7496 39.251 33.4138 39.251 32.9996ZM20.752 26.9957C20.752 27.0443 20.7664 27.0918 20.793 27.1324C20.8063 27.1529 20.8223 27.1715 20.8408 27.1871L20.9014 27.2252L20.9121 27.2291L29.4824 31.1373C29.6452 31.2115 29.8221 31.2506 30.001 31.2506C30.1799 31.2506 30.3567 31.2116 30.5195 31.1373H30.5205L39.1113 27.2389L39.1182 27.236C39.1629 27.2162 39.201 27.1833 39.2275 27.1422C39.2377 27.1264 39.2446 27.109 39.251 27.0914V26.9996C39.251 26.9763 39.2518 26.9531 39.2539 26.9303C39.2468 26.9084 39.2376 26.8871 39.2246 26.8678C39.1973 26.8272 39.1584 26.7948 39.1133 26.776C39.1058 26.7729 39.0982 26.7696 39.0908 26.7662L30.5195 22.8629V22.8619C30.3568 22.7877 30.1798 22.7497 30.001 22.7496C29.8222 22.7496 29.6451 22.7878 29.4824 22.8619L29.4814 22.8629L20.9111 26.7623L20.9014 26.7672C20.8571 26.7867 20.8195 26.8186 20.793 26.859C20.7664 26.8996 20.752 26.9472 20.752 26.9957Z" fill="#F7F8FC"/>
</g>
<defs>
<filter id="filter0_dd_2457_6060" x="0" y="0" width="62" height="62" filterUnits="userSpaceOnUse" color-interpolation-filters="sRGB">
<feFlood flood-opacity="0" result="BackgroundImageFix"/>
<feColorMatrix in="SourceAlpha" type="matrix" values="0 0 0 0 0 0 0 0 0 0 0 0 0 0 0 0 0 0 127 0" result="hardAlpha"/>
<feOffset dy="1"/>
<feGaussianBlur stdDeviation="1.5"/>
<feColorMatrix type="matrix" values="0 0 0 0 0 0 0 0 0 0 0 0 0 0 0 0 0 0 0.1 0"/>
<feBlend mode="normal" in2="BackgroundImageFix" result="effect1_dropShadow_2457_6060"/>
<feColorMatrix in="SourceAlpha" type="matrix" values="0 0 0 0 0 0 0 0 0 0 0 0 0 0 0 0 0 0 127 0" result="hardAlpha"/>
<feMorphology radius="1" operator="erode" in="SourceAlpha" result="effect2_dropShadow_2457_6060"/>
<feOffset dy="1"/>
<feGaussianBlur stdDeviation="1"/>
<feColorMatrix type="matrix" values="0 0 0 0 0 0 0 0 0 0 0 0 0 0 0 0 0 0 0.1 0"/>
<feBlend mode="normal" in2="effect1_dropShadow_2457_6060" result="effect2_dropShadow_2457_6060"/>
<feBlend mode="normal" in="SourceGraphic" in2="effect2_dropShadow_2457_6060" result="shape"/>
</filter>
<linearGradient id="paint0_linear_2457_6060" x1="31" y1="2" x2="31" y2="58" gradientUnits="userSpaceOnUse">
<stop stop-color="#30BA9D"/>
<stop offset="1" stop-color="#1A9F83"/>
</linearGradient>
</defs>
</svg>
