<svg width="62" height="62" viewBox="0 0 62 62" fill="none" xmlns="http://www.w3.org/2000/svg">
<g filter="url(#filter0_dd_2457_2977)">
<path d="M3 14C3 7.37258 8.37258 2 15 2H47C53.6274 2 59 7.37258 59 14V46C59 52.6274 53.6274 58 47 58H15C8.37258 58 3 52.6274 3 46V14Z" fill="url(#paint0_linear_2457_2977)"/>
<path d="M26.251 38.0002C26.251 37.8622 26.139 37.7503 26.001 37.7502C25.8629 37.7502 25.751 37.8621 25.751 38.0002C25.7511 38.1382 25.863 38.2502 26.001 38.2502C26.1389 38.2501 26.2509 38.1381 26.251 38.0002ZM37.251 38.0002C37.251 37.8622 37.139 37.7503 37.001 37.7502C36.8629 37.7502 36.751 37.8621 36.751 38.0002C36.7511 38.1382 36.863 38.2502 37.001 38.2502C37.1389 38.2501 37.2509 38.1381 37.251 38.0002ZM22.0508 18.3C22.4044 18.3 22.7101 18.547 22.7842 18.8928L23.7285 23.3H40.0908C40.3182 23.3 40.5334 23.403 40.6758 23.5803C40.818 23.7575 40.8724 23.9902 40.8232 24.2121L39.1729 31.6428L39.1719 31.6418C39.0372 32.2527 38.6992 32.7993 38.2119 33.1916C37.7245 33.584 37.118 33.7989 36.4922 33.8H26.7109V33.799C26.0773 33.8093 25.4595 33.6012 24.9619 33.2082C24.5228 32.8613 24.2015 32.3899 24.0381 31.8586L23.9775 31.6271L22.3896 24.2141C22.3873 24.2034 22.3847 24.1927 22.3828 24.1818L21.4443 19.8H20.0508C19.6366 19.8 19.3008 19.4642 19.3008 19.05C19.3008 18.6358 19.6366 18.3 20.0508 18.3H22.0508ZM25.4443 31.3127L25.4717 31.4182C25.546 31.6595 25.6921 31.8738 25.8916 32.0314C26.1197 32.2116 26.4037 32.3065 26.6943 32.3H36.4893C36.7737 32.2995 37.0499 32.202 37.2715 32.0236C37.4931 31.8452 37.6468 31.5964 37.708 31.3185L37.709 31.3176L39.1562 24.8H24.0498L25.4443 31.3127ZM27.751 38.0002C27.7509 38.9665 26.9673 39.7501 26.001 39.7502C25.0345 39.7502 24.2511 38.9666 24.251 38.0002C24.251 37.0337 25.0345 36.2502 26.001 36.2502C26.9674 36.2503 27.751 37.0338 27.751 38.0002ZM38.751 38.0002C38.7509 38.9665 37.9673 39.7501 37.001 39.7502C36.0345 39.7502 35.2511 38.9666 35.251 38.0002C35.251 37.0337 36.0345 36.2502 37.001 36.2502C37.9674 36.2503 38.751 37.0337 38.751 38.0002Z" fill="#F7F8FC"/>
</g>
<defs>
<filter id="filter0_dd_2457_2977" x="0" y="0" width="62" height="62" filterUnits="userSpaceOnUse" color-interpolation-filters="sRGB">
<feFlood flood-opacity="0" result="BackgroundImageFix"/>
<feColorMatrix in="SourceAlpha" type="matrix" values="0 0 0 0 0 0 0 0 0 0 0 0 0 0 0 0 0 0 127 0" result="hardAlpha"/>
<feOffset dy="1"/>
<feGaussianBlur stdDeviation="1.5"/>
<feColorMatrix type="matrix" values="0 0 0 0 0 0 0 0 0 0 0 0 0 0 0 0 0 0 0.1 0"/>
<feBlend mode="normal" in2="BackgroundImageFix" result="effect1_dropShadow_2457_2977"/>
<feColorMatrix in="SourceAlpha" type="matrix" values="0 0 0 0 0 0 0 0 0 0 0 0 0 0 0 0 0 0 127 0" result="hardAlpha"/>
<feMorphology radius="1" operator="erode" in="SourceAlpha" result="effect2_dropShadow_2457_2977"/>
<feOffset dy="1"/>
<feGaussianBlur stdDeviation="1"/>
<feColorMatrix type="matrix" values="0 0 0 0 0 0 0 0 0 0 0 0 0 0 0 0 0 0 0.1 0"/>
<feBlend mode="normal" in2="effect1_dropShadow_2457_2977" result="effect2_dropShadow_2457_2977"/>
<feBlend mode="normal" in="SourceGraphic" in2="effect2_dropShadow_2457_2977" result="shape"/>
</filter>
<linearGradient id="paint0_linear_2457_2977" x1="31" y1="2" x2="31" y2="58" gradientUnits="userSpaceOnUse">
<stop stop-color="#30BA9D"/>
<stop offset="1" stop-color="#1A9F83"/>
</linearGradient>
</defs>
</svg>
